<svg xmlns="http://www.w3.org/2000/svg" version="1.1" xmlns:xlink="http://www.w3.org/1999/xlink" xmlns:svgjs="http://svgjs.dev/svgjs" width="1000" height="1000" viewBox="0 0 1000 1000"><rect width="1000" height="1000" fill="#528265"></rect><g transform="matrix(0.7,0,0,0.7,149.57575764870745,367.30600654704597)"><svg viewBox="0 0 396 150" data-background-color="#528265" preserveAspectRatio="xMidYMid meet" height="378" width="1000" xmlns="http://www.w3.org/2000/svg" xmlns:xlink="http://www.w3.org/1999/xlink"><g id="tight-bounds" transform="matrix(1,0,0,1,0.24000004126889962,0.2233522975929958)"><svg viewBox="0 0 395.52 149.553295404814" height="149.553295404814" width="395.52"><g><svg viewBox="0 0 395.52 149.553295404814" height="149.553295404814" width="395.52"><g><svg viewBox="0 0 395.52 149.553295404814" height="149.553295404814" width="395.52"><g id="textblocktransform"><svg viewBox="0 0 395.52 149.553295404814" height="149.553295404814" width="395.52" id="textblock"><g><svg viewBox="0 0 395.52 149.553295404814" height="149.553295404814" width="395.52"><g transform="matrix(1,0,0,1,0,0)"><svg width="395.52" viewBox="0.8500000238418579 -36.5 114.25 43.20000076293945" height="149.553295404814" data-palette-color="#ffffff"><path d="M15.85 6.7L15.85 6.7Q11.3 6.7 8.38 5.68 5.45 4.65 3.78 2.95 2.1 1.25 1.48-0.95 0.85-3.15 0.85-5.5L0.85-5.5 0.85-12.1Q0.85-12.75 1.03-13.23 1.2-13.7 1.5-13.95L1.5-13.95 8-19.4Q8.25-19.6 8.65-19.73 9.05-19.85 9.6-19.85L9.6-19.85 16.85-19.85Q17.4-19.85 17.82-19.73 18.25-19.6 18.55-19.35L18.55-19.35 18.55-28.75Q18.55-29.4 18.73-29.85 18.9-30.3 19.25-30.6L19.25-30.6 25.7-36.05Q25.95-36.25 26.38-36.38 26.8-36.5 27.3-36.5L27.3-36.5 35.15-36.5Q36.35-36.5 36.9-35.95 37.45-35.4 37.45-34.2L37.45-34.2 37.45-9.45Q37.45-7.1 36.77-5.13 36.1-3.15 34.4-1.75L34.4-1.75 27.95 3.7Q26.25 5.1 23.35 5.9 20.45 6.7 15.85 6.7ZM36.95-9.45L36.95-9.45 36.95-34.2Q36.95-35.15 36.52-35.58 36.1-36 35.15-36L35.15-36 27.3-36Q26.35-36 25.93-35.58 25.5-35.15 25.5-34.2L25.5-34.2 25.5-11.45Q25.5-10.45 24.93-9.78 24.35-9.1 22.2-9.1L22.2-9.1Q19.9-9.1 19.28-9.78 18.65-10.45 18.65-11.45L18.65-11.45 18.65-17.55Q18.65-18.5 18.23-18.93 17.8-19.35 16.85-19.35L16.85-19.35 9.6-19.35Q8.65-19.35 8.22-18.93 7.8-18.5 7.8-17.55L7.8-17.55 7.8-9.45Q7.8-7.15 8.43-5.28 9.05-3.4 10.68-2.08 12.3-0.75 15.13 0 17.95 0.75 22.3 0.75L22.3 0.75Q26.7 0.75 29.55 0 32.4-0.75 34.02-2.08 35.65-3.4 36.3-5.28 36.95-7.15 36.95-9.45ZM30.95-10.65L30.95-31.5 31.45-31.5 31.45-10.65Q31.45-7.7 29.58-5.8 27.7-3.9 22.4-3.9L22.4-3.9Q19.6-3.9 17.78-4.4 15.95-4.9 14.9-5.78 13.85-6.65 13.43-7.9 13-9.15 13-10.65L13-10.65 13-14.6 13.5-14.6 13.5-10.65Q13.5-7.8 15.38-6.1 17.25-4.4 22.4-4.4L22.4-4.4Q27.35-4.4 29.15-6.13 30.95-7.85 30.95-10.65L30.95-10.65ZM64.45 5.95L64.45 5.95 43.15 5.95Q41.95 5.95 41.4 5.4 40.85 4.85 40.85 3.65L40.85 3.65 40.85-2.3Q40.85-2.95 41.02-3.4 41.2-3.85 41.55-4.15L41.55-4.15 47.6-9.25 47.6-20.4 43.15-20.4Q41.95-20.4 41.4-20.95 40.85-21.5 40.85-22.7L40.85-22.7 40.85-28.75Q40.85-29.4 41.02-29.85 41.2-30.3 41.55-30.6L41.55-30.6 48-36.05Q48.25-36.25 48.67-36.38 49.1-36.5 49.6-36.5L49.6-36.5 70.9-36.5Q72.1-36.5 72.65-35.95 73.2-35.4 73.2-34.2L73.2-34.2 73.2-28.15Q73.2-27.5 73.02-27.05 72.85-26.6 72.5-26.3L72.5-26.3 66.55-21.3 66.55-10.05 70.9-10.05Q72.1-10.05 72.65-9.5 73.2-8.95 73.2-7.75L73.2-7.75 73.2-1.8Q73.2-1.15 73.02-0.7 72.85-0.25 72.5 0.05L72.5 0.05 66 5.45Q65.8 5.65 65.37 5.8 64.95 5.95 64.45 5.95ZM49.6 0L49.6 0 70.9 0Q71.85 0 72.27-0.43 72.7-0.85 72.7-1.8L72.7-1.8 72.7-7.75Q72.7-8.7 72.27-9.13 71.85-9.55 70.9-9.55L70.9-9.55 66.05-9.55 66.05-26.35 70.9-26.35Q71.85-26.35 72.27-26.78 72.7-27.2 72.7-28.15L72.7-28.15 72.7-34.2Q72.7-35.15 72.27-35.58 71.85-36 70.9-36L70.9-36 49.6-36Q48.65-36 48.22-35.58 47.8-35.15 47.8-34.2L47.8-34.2 47.8-28.15Q47.8-27.2 48.22-26.78 48.65-26.35 49.6-26.35L49.6-26.35 54.55-26.35 54.55-9.55 49.6-9.55Q48.65-9.55 48.22-9.13 47.8-8.7 47.8-7.75L47.8-7.75 47.8-1.8Q47.8-0.85 48.22-0.43 48.65 0 49.6 0ZM68.2-5L68.2-4.5 52.3-4.5 52.3-5 60.05-5 60.05-31 52.3-31 52.3-31.5 68.2-31.5 68.2-31 60.55-31 60.55-5 68.2-5ZM90.45-31.1L90.45-31.1 108.85-10.4 108.85-31.5 109.35-31.5 109.35-4.5 108.85-4.5 108.85-9.65 89.95-30.85Q89.9-30.9 89.82-30.95 89.75-31 89.7-31L89.7-31Q89.65-31 89.62-30.95 89.6-30.9 89.6-30.85L89.6-30.85 89.6-4.5 89.1-4.5 89.1-30.95Q89.1-31.25 89.3-31.4 89.5-31.55 89.7-31.55L89.7-31.55Q89.9-31.55 90.05-31.45 90.2-31.35 90.45-31.1ZM85.65 0L93.15 0Q94.1 0 94.52-0.43 94.95-0.85 94.95-1.8L94.95-1.8 94.95-18.3 103.5-7.95 103.5-1.8Q103.5-0.85 103.92-0.43 104.35 0 105.3 0L105.3 0 112.8 0Q113.75 0 114.17-0.43 114.6-0.85 114.6-1.8L114.6-1.8 114.6-34.2Q114.6-35.15 114.17-35.58 113.75-36 112.8-36L112.8-36 105.3-36Q104.35-36 103.92-35.58 103.5-35.15 103.5-34.2L103.5-34.2 103.5-23.55 93.8-34.65Q93.15-35.4 92.47-35.7 91.8-36 90.85-36L90.85-36 85.65-36Q84.7-36 84.27-35.58 83.85-35.15 83.85-34.2L83.85-34.2 83.85-1.8Q83.85-0.85 84.27-0.43 84.7 0 85.65 0L85.65 0ZM94.75 0.05L94.75 0.05 88.25 5.45Q88.05 5.65 87.62 5.8 87.2 5.95 86.7 5.95L86.7 5.95 79.2 5.95Q78 5.95 77.45 5.4 76.9 4.85 76.9 3.65L76.9 3.65 76.9-28.75Q76.9-29.4 77.07-29.85 77.25-30.3 77.6-30.6L77.6-30.6 84.05-36.05Q84.3-36.25 84.72-36.38 85.15-36.5 85.65-36.5L85.65-36.5 90.85-36.5Q91.95-36.5 92.7-36.15 93.45-35.8 94.2-35L94.2-35 97.65-31 103.7-36.05Q103.95-36.25 104.37-36.38 104.8-36.5 105.3-36.5L105.3-36.5 112.8-36.5Q114-36.5 114.55-35.95 115.1-35.4 115.1-34.2L115.1-34.2 115.1-1.8Q115.1-1.15 114.92-0.7 114.75-0.25 114.4 0.05L114.4 0.05 107.9 5.45Q107.7 5.65 107.27 5.8 106.85 5.95 106.35 5.95L106.35 5.95 98.85 5.95Q97.65 5.95 97.1 5.4 96.55 4.85 96.55 3.65L96.55 3.65 96.55-2.3 95.45-3.65 95.45-1.8Q95.45-1.15 95.27-0.7 95.1-0.25 94.75 0.05Z" opacity="1" transform="matrix(1,0,0,1,0,0)" fill="#ffffff" class="wordmark-text-0" data-fill-palette-color="primary" id="text-0"></path></svg></g></svg></g></svg></g></svg></g></svg></g><defs></defs></svg><rect width="395.52" height="149.553295404814" fill="none" stroke="none" visibility="hidden"></rect></g></svg></g></svg>